<svg width="12" height="12" viewBox="0 0 12 12" fill="none" xmlns="http://www.w3.org/2000/svg">
<g clip-path="url(#clip0_96_2153)">
<path d="M6 12H5.925L0.3 10.75C0.125 10.7 0 10.55 0 10.375V0.374976C0 0.249976 0.05 0.149976 0.15 0.0749756C0.25 -2.44156e-05 0.35 -0.0250244 0.45 -2.44137e-05L6.075 1.24998C6.25 1.29998 6.375 1.44998 6.375 1.62498V11.625C6.375 11.75 6.325 11.85 6.225 11.925C6.175 11.975 6.075 12 6 12ZM0.75 10.075L5.625 11.15V1.92498L0.75 0.849976V10.075Z" fill="#8E8E8E"/>
<path d="M6 12C5.925 12 5.825 11.975 5.775 11.925C5.675 11.85 5.625 11.75 5.625 11.625V1.62498C5.625 1.44998 5.75 1.29998 5.925 1.24998L11.55 -2.44137e-05C11.65 -0.0250244 11.775 -2.44156e-05 11.875 0.0749756C11.95 0.149976 12 0.249976 12 0.374976V10.375C12 10.55 11.875 10.7 11.7 10.75L6.075 12H6ZM6.375 1.92498V11.15L11.25 10.075V0.849976L6.375 1.92498Z" fill="#8E8E8E"/>
<path d="M7.625 9.70003C7.45 9.70003 7.3 9.57502 7.25 9.40002C7.2 9.20002 7.325 9.00002 7.525 8.95003L9.9 8.42503C10.1 8.37503 10.3 8.50002 10.35 8.70003C10.4 8.90002 10.275 9.10002 10.075 9.15002L7.7 9.67503C7.675 9.70003 7.65 9.70003 7.625 9.70003ZM4.375 9.70003H4.3L1.925 9.17503C1.725 9.12503 1.6 8.92503 1.65 8.72503C1.7 8.52503 1.9 8.40002 2.1 8.45003L4.475 8.97503C4.675 9.02503 4.8 9.22503 4.75 9.42503C4.7 9.57503 4.55 9.70003 4.375 9.70003ZM4.375 6.20002H4.3L1.925 5.67503C1.75 5.62503 1.625 5.47503 1.625 5.30003V2.67502C1.625 2.55002 1.675 2.45002 1.775 2.37502C1.875 2.30002 1.975 2.27502 2.1 2.30002L4.475 2.82502C4.65 2.87502 4.775 3.02502 4.775 3.20002V5.82502C4.775 5.95002 4.725 6.05002 4.625 6.12503C4.55 6.17502 4.45 6.20002 4.375 6.20002ZM2.375 5.00002L4 5.35002V3.50002L2.375 3.15002V5.00002ZM7.625 6.20002C7.55 6.20002 7.45 6.17502 7.4 6.12503C7.3 6.05002 7.25 5.95002 7.25 5.82502V3.20002C7.25 3.02502 7.375 2.87502 7.55 2.82502L9.925 2.30002C10.025 2.27502 10.15 2.30002 10.25 2.37502C10.35 2.45002 10.4 2.55002 10.4 2.67502V5.30003C10.4 5.47503 10.275 5.62503 10.1 5.67503L7.725 6.20002H7.625ZM8 3.50002V5.35002L9.625 5.00002V3.15002L8 3.50002ZM7.625 8.20002C7.45 8.20002 7.3 8.07503 7.25 7.90002C7.2 7.70003 7.325 7.50002 7.525 7.45002L9.9 6.92502C10.1 6.87503 10.3 7.00002 10.35 7.20002C10.4 7.40002 10.275 7.60003 10.075 7.65002L7.7 8.17502C7.675 8.20003 7.65 8.20002 7.625 8.20002Z" fill="#8E8E8E"/>
</g>
<defs>
<clipPath id="clip0_96_2153">
<rect width="12" height="12" fill="white"/>
</clipPath>
</defs>
</svg>
