<svg width="103" height="29" viewBox="0 0 103 29" fill="none" xmlns="http://www.w3.org/2000/svg">
<path fill-rule="evenodd" clip-rule="evenodd" d="M5.57128 0.0997054C3.46878 0.978768 1.16691 3.45283 0.441906 6.56127C-0.482469 10.4944 3.35097 12.1528 3.66816 11.6091C4.03066 10.9747 2.97941 10.7572 2.76191 8.70908C2.49003 6.08095 3.71347 3.12658 5.2541 1.83971C5.5441 1.59502 5.52597 1.93033 5.52597 2.54658L5.47159 15.651C5.47159 18.4603 5.35378 19.3394 5.14534 20.2185C4.9369 21.1066 4.60159 21.7047 4.84628 21.9403C5.13628 22.1941 6.36878 21.5778 7.07566 20.581C7.88332 19.349 8.30316 17.9033 8.28097 16.4303C8.34441 14.5635 8.33534 11.6 8.34441 9.91439C8.34441 8.37377 8.37159 3.83346 8.31722 1.10564C8.29909 0.435018 6.44128 -0.262795 5.57128 0.108768V0.0997054ZM80.0016 13.2222C79.9727 14.3979 79.7012 15.5549 79.2041 16.6206C78.4338 18.1794 76.8207 18.6597 76.1319 16.4213C75.7694 15.2069 75.7422 13.1678 76.0141 11.4641C76.286 9.7422 77.0472 8.42814 78.3069 8.54596C79.5575 8.66377 80.1375 10.2678 80.0016 13.2222ZM59.0219 22.2666C59.0038 24.6863 58.6232 26.8069 57.8075 27.4322C56.6385 28.3022 55.0888 27.6406 55.406 25.8735C55.6869 24.3147 57.0372 22.7197 59.031 20.7622L59.0219 22.2666ZM58.7047 13.2041C58.6517 14.3823 58.3813 15.5407 57.9072 16.6206C57.1369 18.1794 55.5147 18.6597 54.835 16.4213C54.3819 14.8897 54.4907 12.9141 54.7172 11.6635C55.0163 10.0503 55.7322 8.54596 57.01 8.54596C58.2607 8.54596 58.8769 9.90533 58.7047 13.2041ZM46.5519 13.186C46.5289 14.3759 46.2605 15.5483 45.7635 16.6297C44.966 18.1703 43.38 18.6597 42.6822 16.4213C42.1838 14.8172 42.356 12.615 42.5644 11.4369C42.8725 9.66971 43.6519 8.42814 44.8572 8.53689C46.1078 8.66377 46.706 10.2588 46.5519 13.186ZM102.241 14.8263C101.942 14.8263 101.797 15.1435 101.688 15.6691C101.289 17.4997 100.873 17.9166 100.329 17.9166C99.7307 17.9166 99.1869 17.0103 99.0419 15.1978C98.9332 13.766 98.9513 11.1378 99.0963 8.51877C99.1235 7.98408 98.9694 7.45845 97.5285 6.93283C96.9122 6.70627 96.006 6.37095 95.5619 7.45845C94.6645 9.52767 94.0312 11.7016 93.6769 13.9291C93.6769 13.9835 93.6044 13.9925 93.5863 13.8747C93.5228 13.0863 93.3507 11.6453 93.3325 8.62752C93.3325 8.03846 93.2057 7.54002 92.5532 7.13221C92.1272 6.86033 90.8494 6.39814 90.3782 6.95096C89.9885 7.40408 89.5263 8.64564 89.046 10.1047L88.3753 12.0985L88.3844 7.67596C88.3844 7.22283 88.0763 7.06877 87.9766 7.04158C87.4449 6.87758 86.8986 6.76529 86.3453 6.70627C85.9103 6.70627 85.8016 6.95095 85.8016 7.31345C85.8016 7.35877 85.7291 11.5275 85.7291 14.4456V14.8625C85.4844 16.2038 84.696 18.0253 83.835 18.0253C82.9741 18.0253 82.5663 17.2641 82.5663 13.7841C82.5663 11.7541 82.6297 10.875 82.6569 9.40689C82.675 8.55502 82.7113 7.91158 82.7113 7.76658C82.7022 7.31345 81.9228 7.08689 81.5603 6.99627C81.1978 6.91471 80.8716 6.87845 80.6269 6.89658C80.2644 6.9147 80.0197 7.14127 80.0197 7.45845V7.95689C79.6286 7.33828 79.0463 6.86418 78.3613 6.60658C77.0563 6.21689 75.6969 6.56127 74.6728 7.99314C73.7889 9.25758 73.2686 10.7402 73.1685 12.2797C73.0235 13.6391 73.0778 15.0075 73.3225 16.1766C73.0235 17.4816 72.4525 18.0253 71.8363 18.0253C70.9391 18.0253 70.2957 16.5572 70.3682 14.0378C70.4225 12.3703 70.7488 11.2013 71.1113 9.51564C71.2653 8.79064 71.1475 8.42814 70.8303 8.06564C70.5403 7.73033 69.9241 7.55814 69.0269 7.76658C68.3925 7.91158 67.4863 8.07471 66.6707 8.19252C66.6707 8.19252 66.716 8.0022 66.7613 7.64877C66.9697 5.80908 64.9669 5.95408 64.3235 6.54314C63.9428 6.89658 63.6891 7.30439 63.5803 8.05658C63.4263 9.2347 64.396 9.78752 64.396 9.78752C63.7732 12.1398 62.7292 14.3598 61.3147 16.3397V15.7053C61.3057 12.6603 61.3419 10.2678 61.36 9.40689C61.3782 8.55502 61.4144 7.92971 61.4144 7.77564C61.4144 7.44939 61.215 7.32252 60.8163 7.16846C60.4538 7.02346 60.0369 6.93283 59.6019 6.89658C59.0582 6.85127 58.7228 7.14127 58.7319 7.48564V7.95689C58.339 7.3363 57.7531 6.8619 57.0644 6.60658C55.7594 6.21689 54.4 6.56127 53.376 7.99314C52.5237 9.27024 52.0064 10.7412 51.8716 12.2706C51.7357 13.6935 51.7538 14.8988 51.9532 15.9319C51.7447 16.956 51.1466 18.0163 50.476 18.0163C49.615 18.0163 49.1166 17.2641 49.1166 13.7841C49.1166 11.7541 49.18 10.875 49.2072 9.40689C49.2253 8.55502 49.2616 7.91158 49.2616 7.76658C49.2616 7.31345 48.4732 7.08689 48.1107 6.99627C47.73 6.90564 47.3947 6.87846 47.15 6.90564C46.8147 6.92377 46.5791 7.22283 46.5791 7.44939V7.95689C46.1862 7.3363 45.6003 6.8619 44.9116 6.60658C43.6066 6.21689 42.2563 6.57033 41.2232 7.99314C40.5435 8.92658 39.9997 9.95971 39.7188 12.2525C39.6427 12.8658 39.6063 13.4833 39.61 14.1013C39.3382 15.7416 38.151 17.6356 37.1813 17.6356C36.6103 17.6356 36.0666 16.5391 36.0666 14.1919C36.0666 11.0653 36.266 6.61564 36.2932 6.1897L37.7613 6.16252C38.3775 6.16252 38.9303 6.17158 39.746 6.12627C40.1538 6.10814 40.5435 4.64002 40.1266 4.45877C39.9363 4.37721 38.586 4.30471 38.0422 4.29564C37.5891 4.28658 36.3385 4.19596 36.3385 4.19596C36.3385 4.19596 36.4563 1.24158 36.4835 0.933455C36.5016 0.66158 36.1663 0.534705 35.9669 0.453143C35.5196 0.273102 35.055 0.139485 34.5803 0.0543927C33.8916 -0.0815448 33.5835 0.0543926 33.52 0.634393C33.4294 1.51346 33.3841 4.09627 33.3841 4.09627C32.8766 4.09627 31.1457 3.99658 30.6472 3.99658C30.176 3.99658 29.6685 6.00845 30.321 6.03564L33.221 6.11721L33.1938 12.035V12.461C32.7135 14.935 31.046 16.2672 31.046 16.2672C31.4085 14.636 30.6653 13.4125 29.3513 12.3703C28.8619 11.9897 27.9013 11.2647 26.8228 10.4672C26.8228 10.4672 27.4482 9.85096 28.001 8.61845C28.3907 7.74846 28.4088 6.75158 27.4482 6.53408C25.8622 6.16252 24.5482 7.32252 24.1585 8.57314C24.0064 8.97798 23.9683 9.41677 24.0481 9.84178C24.128 10.2668 24.3229 10.6618 24.6116 10.9838L24.7475 11.156C24.385 11.8447 23.8957 12.7691 23.4788 13.4941C22.3278 15.4878 21.4488 17.0738 20.7872 17.0738C20.2616 17.0738 20.2707 15.4697 20.2707 13.9653C20.2707 12.6694 20.3613 10.721 20.4428 8.70908C20.47 8.03846 20.1347 7.65783 19.5728 7.31345C19.1261 7.00438 18.62 6.79145 18.0866 6.68814C17.4522 6.68814 15.6397 6.77877 13.9178 11.736C13.7094 12.3613 13.2835 13.4941 13.2835 13.4941L13.3197 7.54002C13.3197 7.39502 13.2472 7.26814 13.075 7.17752C12.5342 6.89001 11.9375 6.72306 11.326 6.68814C10.9997 6.68814 10.8366 6.84221 10.8366 7.14127L10.7732 16.4756C10.7732 17.1825 10.7913 18.0072 10.8638 18.3697C10.9363 18.7322 11.045 19.0222 11.19 19.1944C11.326 19.3756 11.4891 19.5025 11.7519 19.5569C12.0057 19.6113 13.365 19.7835 13.4375 19.2669C13.5282 18.6416 13.5282 17.971 14.2441 15.4606C15.3497 11.5547 16.7997 9.64252 17.4885 8.97189C17.6063 8.84502 17.7422 8.84502 17.7332 9.03533L17.5338 13.8566C17.3525 18.7231 18.2407 19.6203 19.5003 19.6203C20.47 19.6203 21.8385 18.6597 23.3066 16.231L25.7535 12.1528L27.1853 13.476C28.3453 14.5635 28.726 15.6147 28.4722 16.6025C28.2819 17.3547 27.5478 18.1431 26.261 17.3819C25.8803 17.1553 25.7172 16.9831 25.3457 16.7385C25.1372 16.6025 24.8291 16.5572 24.6388 16.7022C24.1585 17.0647 23.8775 17.536 23.7235 18.1069C23.5694 18.6597 24.1313 18.9588 24.7113 19.2125C25.2097 19.4391 26.2882 19.6385 26.9769 19.6656C29.6413 19.7563 31.78 18.3788 33.2663 14.8263C33.5382 17.8894 34.671 19.6294 36.6375 19.6294C37.9516 19.6294 39.2747 17.9256 39.8547 16.2581C40.0178 16.9378 40.2625 17.5269 40.5797 18.0344C42.1022 20.436 45.0475 19.9103 46.5247 17.8713C46.9778 17.246 47.0503 17.0194 47.0503 17.0194C47.0946 17.7055 47.3913 18.351 47.8833 18.8313C48.3753 19.3115 49.0277 19.5926 49.7147 19.6203C50.7116 19.6203 51.7357 19.1491 52.4607 17.5269C52.5422 17.7081 52.6419 17.8713 52.7325 18.0344C54.255 20.436 57.2003 19.9103 58.6775 17.8713L58.8588 17.6175L58.9041 18.8863L57.5447 20.1278C55.261 22.2122 53.521 23.7981 53.3941 25.6469C53.231 28.0031 55.1432 28.8731 56.5932 28.991C57.3184 29.027 58.0401 28.8688 58.6838 28.5327C59.3274 28.1965 59.8696 27.6946 60.2544 27.0788C60.9613 26.0366 61.4325 23.7891 61.3963 21.5688L61.3419 18.3425C63.5127 15.8323 65.1803 12.9278 66.2538 9.78752C66.2538 9.78752 67.0966 9.79658 67.9938 9.7422C68.2838 9.72408 68.3653 9.77846 68.311 9.98689C68.2475 10.2406 67.1782 14.3731 68.1569 17.1281C68.8275 19.0131 70.3319 19.6203 71.2382 19.6203C72.2803 19.6203 73.2863 18.8319 73.821 17.6538L74.0294 18.0344C75.5519 20.436 78.4882 19.9103 79.9744 17.8713C80.3097 17.4181 80.5 17.0194 80.5 17.0194C80.8263 19.0131 82.376 19.6294 83.2641 19.6294C84.1885 19.6294 85.0766 19.2488 85.7835 17.5631C85.8107 18.3063 85.856 18.9135 85.9285 19.1038C85.9738 19.2216 86.2366 19.3756 86.436 19.4391C87.2788 19.7472 88.1397 19.6022 88.466 19.5388C88.6835 19.4935 88.8557 19.3122 88.8828 18.8591C88.9463 17.6538 88.91 15.6328 89.2725 14.1375C89.8797 11.6091 90.4507 10.6303 90.7225 10.15C90.8766 9.87814 91.0488 9.83283 91.0578 10.1228C91.0669 10.7028 91.0941 12.4066 91.3297 14.6994C91.511 16.385 91.7466 17.3819 91.9188 17.69C92.4353 18.5963 93.0697 18.6416 93.5772 18.6416C93.9035 18.6416 94.5922 18.551 94.5288 17.98C94.5016 17.6991 94.5469 15.9681 95.1631 13.485C95.5528 11.8628 96.2053 10.4038 96.441 9.86002C96.5316 9.66971 96.5769 9.82377 96.5769 9.86002C96.5225 10.9656 96.4138 14.6178 96.8669 16.6206C97.4832 19.3213 99.2685 19.6294 99.8938 19.6294C101.226 19.6294 102.313 18.6144 102.676 15.9591C102.767 15.3247 102.631 14.8263 102.241 14.8263Z" fill="#262626"/>
</svg>
