<svg width="24" height="24" viewBox="0 0 24 24" fill="none" xmlns="http://www.w3.org/2000/svg">
<path d="M12.003 2.00098C13.303 1.95924 14.5981 2.17924 15.8115 2.64792C17.0248 3.11661 18.1315 3.8244 19.0659 4.72925C20.0003 5.63411 20.7432 6.71755 21.2506 7.91521C21.758 9.11286 22.0194 10.4003 22.0194 11.701C22.0194 13.0017 21.758 14.2891 21.2506 15.4868C20.7432 16.6844 20.0003 17.7679 19.0659 18.6727C18.1315 19.5776 17.0248 20.2854 15.8115 20.754C14.5981 21.2227 13.303 21.4427 12.003 21.401C11.0251 21.4037 10.0513 21.2745 9.10796 21.017C8.93097 20.9687 8.74274 20.9828 8.57496 21.057L6.59096 21.933C6.47099 21.9857 6.33992 22.0082 6.20923 21.9985C6.07854 21.9888 5.95223 21.9472 5.84137 21.8773C5.73052 21.8074 5.6385 21.7114 5.5734 21.5977C5.50829 21.4839 5.47209 21.356 5.46796 21.225L5.41396 19.445C5.40945 19.3369 5.38322 19.2308 5.33683 19.133C5.29045 19.0353 5.22485 18.9478 5.14396 18.876C4.14013 17.9723 3.34075 16.8649 2.79926 15.6275C2.25776 14.3902 1.98662 13.0515 2.00396 11.701C1.99636 10.3995 2.25209 9.10999 2.75579 7.90993C3.25948 6.70987 4.00071 5.6241 4.9349 4.71794C5.86909 3.81178 6.97693 3.10395 8.19177 2.63703C9.4066 2.17011 10.7023 1.95376 12.003 2.00098Z" stroke="#262626" stroke-width="1.739" stroke-miterlimit="10"/>
<path fill-rule="evenodd" clip-rule="evenodd" d="M17.79 10.132C17.8735 10.0008 17.908 9.8444 17.8873 9.6903C17.8667 9.5362 17.7922 9.39437 17.677 9.28989C17.5619 9.1854 17.4135 9.12499 17.2582 9.11933C17.1028 9.11368 16.9504 9.16314 16.828 9.25897L14.272 11.309C14.163 11.3915 14.03 11.4364 13.8933 11.4367C13.7566 11.4371 13.6234 11.3929 13.514 11.311L11.06 9.46998C10.8859 9.33963 10.6867 9.24673 10.4749 9.19712C10.2632 9.14752 10.0434 9.14227 9.82957 9.18172C9.61569 9.22117 9.41229 9.30446 9.23217 9.42635C9.05206 9.54824 8.89911 9.7061 8.78297 9.88998L6.21597 13.87C6.13169 14.001 6.09655 14.1576 6.11679 14.3121C6.13703 14.4666 6.21134 14.6089 6.32654 14.7138C6.44173 14.8187 6.59036 14.8793 6.74604 14.8851C6.90173 14.8908 7.0544 14.8411 7.17697 14.745L9.73297 12.696C9.84208 12.6132 9.97518 12.5682 10.1121 12.5678C10.2491 12.5675 10.3824 12.6118 10.492 12.694L12.944 14.534C13.1181 14.6645 13.3174 14.7575 13.5292 14.8072C13.7411 14.8569 13.9609 14.8622 14.1749 14.8228C14.3889 14.7833 14.5924 14.7 14.7727 14.578C14.9529 14.456 15.1058 14.298 15.222 14.114L17.79 10.132Z" fill="#262626"/>
</svg>
