<svg width="22" height="22" viewBox="0 0 22 22" fill="none" xmlns="http://www.w3.org/2000/svg">
<path d="M17.3 14.325V3.41669C17.3 1.72503 15.9583 0.383362 14.2666 0.383362H3.41663C1.72497 0.383362 0.383301 1.72503 0.383301 3.41669V14.325C0.383301 16.0167 1.72497 17.3584 3.41663 17.3584H14.325C15.9583 17.3 17.3 15.9584 17.3 14.325ZM19.8666 5.75003V15.1417C19.8666 17.7667 17.7083 19.925 15.0833 19.925H5.69163C5.34163 19.925 5.16663 20.3334 5.39997 20.5667C5.9833 21.2084 6.79997 21.6167 7.79163 21.6167H15.6083C18.9333 21.6167 21.6166 18.9334 21.6166 15.6084V7.79169C21.6166 6.85836 21.2083 5.98336 20.5666 5.40003C20.275 5.16669 19.8666 5.40003 19.8666 5.75003Z" fill="white"/>
</svg>
